<?xml version="1.0" encoding="utf-8"?>
<!-- Generator: Adobe Illustrator 18.1.0, SVG Export Plug-In . SVG Version: 6.00 Build 0)  -->
<!DOCTYPE svg PUBLIC "-//W3C//DTD SVG 1.1//EN" "http://www.w3.org/Graphics/SVG/1.1/DTD/svg11.dtd" [
	<!ENTITY st0 "fill:#FFFFFF;">
	<!ENTITY st1 "fill:#1B1B1B;">
	<!ENTITY st2 "fill:#D14C18;">
	<!ENTITY st3 "fill:#7C9DB1;">
]>
<svg version="1.1" xmlns="http://www.w3.org/2000/svg" xmlns:xlink="http://www.w3.org/1999/xlink" x="0px" y="0px"
	 viewBox="0 0 26.5 26" style="enable-background:new 0 0 26.5 26;" xml:space="preserve">
<g id="visual_x5F_icon_x5F_white">
</g>
<g id="visual_x5F_icon_x5F_black">
</g>
<g id="sound_x5F_icon_x5F_white">
</g>
<g id="sound_x5F_icon_x5F_black">
</g>
<g id="connections_x5F_icon_x5F_white">
	<path style="&st0;" d="M22.5,13.1c-0.3,0-0.5,0-0.8,0.1l-9-7.7C12.9,5,13,4.5,13,4c0-2.2-1.8-4-4-4C6.8,0,5,1.8,5,4.1
		c0,1.4,0.7,2.6,1.7,3.3L4.2,18c-0.1,0-0.1,0-0.2,0c-1.1,0-2.1,0.4-2.8,1.2C0.4,19.9,0,20.9,0,22c0,2.2,1.8,4,4,4h0
		c2.2,0,4-1.8,4-4.1c0-0.1,0-0.2,0-0.3l10.9-2.9c0.6,1.4,2,2.4,3.6,2.4h0c2.2,0,4-1.8,4-4.1C26.5,14.9,24.7,13.1,22.5,13.1z M9,1.2
		c1.5,0,2.8,1.2,2.8,2.8c0,1.5-1.2,2.8-2.7,2.8l0,0.6V6.8C7.5,6.8,6.2,5.6,6.2,4C6.2,2.5,7.5,1.3,9,1.2z M4,24.8l0,0.6L4,24.8
		c-1.5,0-2.8-1.2-2.8-2.8c0-0.7,0.3-1.4,0.8-2c0.5-0.5,1.2-0.8,2-0.8c1.5,0,2.7,1.2,2.8,2.8C6.8,23.5,5.5,24.7,4,24.8z M7.7,20.4
		c-0.4-1-1.2-1.8-2.3-2.2L7.9,7.9C8.2,8,8.6,8.1,9,8.1h0c1.2,0,2.3-0.6,3.1-1.5l8.3,7.1c-1.1,0.7-1.9,2-1.9,3.4c0,0.2,0,0.3,0,0.4
		L7.7,20.4z M22.5,19.9l0,0.6L22.5,19.9c-1.5,0-2.8-1.2-2.8-2.8c0-1.5,1.2-2.8,2.8-2.8c1.5,0,2.8,1.2,2.8,2.8
		C25.3,18.6,24,19.9,22.5,19.9z"/>
</g>
<g id="connections_x5F_icon_x5F_black">
</g>
<g id="location_x5F_icon_x5F_white">
</g>
<g id="location_x5F_icon_x5F_black">
</g>
<g id="memories_x5F_icon_x5F_white">
</g>
<g id="memories_x5F_icon_x5F_black">
</g>
<g id="messages_x5F_icon_x5F_white">
</g>
<g id="messages_x5F_icon_x5F_white_1_">
</g>
<g id="messages_open_x5F_icon_x5F_white">
</g>
<g id="messages_open_x5F_icon_x5F_black">
</g>
<g id="settings_x5F_icon_x5F_white">
</g>
<g id="settings_x5F_icon_x5F_black">
</g>
<g id="close_x5F_icon_x5F_white">
</g>
<g id="close_x5F_icon_x5F_black">
</g>
</svg>
