<?xml version="1.0" encoding="utf-8"?>
<!-- Generator: Adobe Illustrator 18.0.0, SVG Export Plug-In . SVG Version: 6.00 Build 0)  -->
<!DOCTYPE svg PUBLIC "-//W3C//DTD SVG 1.1//EN" "http://www.w3.org/Graphics/SVG/1.1/DTD/svg11.dtd">
<svg version="1.1" id="Layer_1" xmlns="http://www.w3.org/2000/svg" xmlns:xlink="http://www.w3.org/1999/xlink" x="0px" y="0px"
	 viewBox="0 0 40.1 50" enable-background="new 0 0 40.1 50" xml:space="preserve">
<path fill="#231F20" d="M30.3,26.3H11.5c-1.3,0-2.3-1.2-2.3-2.6c0-1.5,1.1-2.6,2.3-2.6h17.1c0.6,0,1.1-0.6,1.1-1.4
	c0-0.8-0.5-1.4-1.1-1.4H11.6c-1.3,0-2.4-1.2-2.4-2.7c0-1.5,1.1-2.7,2.4-2.7h17c0.6,0,1.2-0.7,1.2-1.5c0-0.8-0.5-1.5-1.2-1.5h-17
	c-1.3,0-2.4-1.2-2.4-2.7s1.1-2.7,2.4-2.7h8.6v1.2h-8.6c-0.7,0-1.2,0.7-1.2,1.5c0,0.8,0.5,1.5,1.2,1.5h17c1.3,0,2.3,1.2,2.3,2.7
	c0,1.5-1.1,2.7-2.3,2.7h-17c-0.7,0-1.2,0.7-1.2,1.5c0,0.8,0.5,1.5,1.2,1.5h17.1c1.3,0,2.3,1.2,2.3,2.6c0,1.4-1,2.6-2.3,2.6H11.5
	c-0.6,0-1.1,0.6-1.1,1.4c0,0.8,0.5,1.4,1.1,1.4h18.8V26.3z"/>
<path fill="#231F20" d="M35.4,48.8h4.7V48h-3.7v-2.7h3.1v-0.9h-3.1v-2.2h3.7v-0.9h-4.7V48.8z M28.4,48.8h1v-6.6h2v-0.9h-5.1v0.9h2.1
	V48.8z M18.7,48.8h3.1V48h-1.1v-5.8h1.1v-0.9h-3.1v0.9h1V48h-1V48.8z M9.4,48.8h1v-3.2h1.4l1.9,3.4l0.8-0.5l-1.8-3
	c0.9-0.3,1.5-1.2,1.5-2.1c0-1.5-1-2-2.2-2H9.4V48.8z M10.4,44.7v-2.6H12c0.9,0,1.3,0.5,1.3,1.2c0,0.8-0.6,1.4-1.6,1.4H10.4z M0,41.2
	L1.1,49h0.3L3,44.4L4.5,49h0.3L6,41.2l-1-0.1l-0.6,5.3h0l-1.3-3.7H2.8l-1.3,3.7h0L1,41.1L0,41.2z"/>
</svg>
