<?xml version="1.0" encoding="utf-8"?>
<!-- Generator: Adobe Illustrator 18.0.0, SVG Export Plug-In . SVG Version: 6.00 Build 0)  -->
<!DOCTYPE svg PUBLIC "-//W3C//DTD SVG 1.1//EN" "http://www.w3.org/Graphics/SVG/1.1/DTD/svg11.dtd">
<svg version="1.1" id="Layer_1" xmlns="http://www.w3.org/2000/svg" xmlns:xlink="http://www.w3.org/1999/xlink" x="0px" y="0px"
	 viewBox="0 0 71 55" enable-background="new 0 0 71 55" xml:space="preserve">
<g>
	<path fill="#1A1A1A" d="M47.9,26.3H25.3c-0.8,0-1.4-0.8-1.4-1.8s0.6-1.8,1.4-1.8h20.6c1.5,0,2.7-1.4,2.7-3.1c0-1.7-1.2-3-2.7-3
		H25.3c-0.8,0-1.5-0.8-1.5-1.8s0.7-1.8,1.5-1.8h20.4c1.5,0,2.8-1.4,2.8-3.2s-1.3-3.2-2.8-3.2H25.3c-0.8,0-1.5-0.8-1.5-1.8
		S24.5,3,25.3,3h10.3V1.7H25.3c-1.6,0-2.8,1.4-2.8,3.2c0,1.8,1.3,3.2,2.8,3.2h20.4c0.8,0,1.4,0.8,1.4,1.8c0,1-0.6,1.8-1.4,1.8H25.3
		c-1.6,0-2.8,1.4-2.8,3.2c0,1.8,1.3,3.2,2.8,3.2h20.5c0.7,0,1.3,0.8,1.3,1.7c0,0.9-0.6,1.7-1.3,1.7H25.3c-1.5,0-2.8,1.4-2.8,3.1
		c0,1.7,1.2,3.1,2.8,3.1h22.6V26.3z"/>
	<polygon fill="#1A1A1A" points="18.2,49.5 18.1,50.3 18,49.5 16.8,42.1 15.6,42.1 14.1,49.5 14,50.3 13.9,49.5 12.7,42 11.4,42.2 
		13.3,51.9 14.6,51.9 15.9,44.9 16.1,43.9 16.2,44.9 17.4,51.9 18.7,51.9 20.8,42.2 19.6,42 	"/>
	<path fill="#1A1A1A" d="M30.7,46.3c0.3-0.5,0.5-1.1,0.5-1.8c0-0.5-0.1-0.9-0.2-1.2c-0.1-0.3-0.3-0.6-0.6-0.7
		c-0.3-0.2-0.6-0.3-0.9-0.4c-0.4-0.1-0.7-0.1-1.1-0.1h-2.6v9.8H27v-4.4h1l2.3,4.5l1.3-0.2l-2.4-4.4C29.9,47.2,30.4,46.8,30.7,46.3z
		 M27,46.5v-3.3h1.1c0.6,0,1,0.1,1.3,0.3c0.3,0.2,0.4,0.6,0.4,1.1c0,0.6-0.2,1.1-0.5,1.4c-0.3,0.3-0.7,0.5-1.3,0.5H27z"/>
	<polygon fill="#1A1A1A" points="36,43.2 37.4,43.2 37.4,50.9 36,50.9 36,51.9 40.1,51.9 40.1,50.9 38.7,50.9 38.7,43.2 40.1,43.2 
		40.1,42.1 36,42.1 	"/>
	<polygon fill="#1A1A1A" points="44.2,43.2 46.4,43.2 46.4,51.9 47.7,51.9 47.7,43.2 49.9,43.2 50.2,42.1 44.2,42.1 	"/>
	<polygon fill="#1A1A1A" points="56,50.8 56,47.4 59,47.4 59,46.3 56,46.3 56,43.3 59.4,43.3 59.6,42.1 54.7,42.1 54.7,51.9 
		59.6,51.9 59.6,50.8 	"/>
</g>
</svg>
