<?xml version="1.0" encoding="utf-8"?>
<!-- Generator: Adobe Illustrator 18.0.0, SVG Export Plug-In . SVG Version: 6.00 Build 0)  -->
<!DOCTYPE svg PUBLIC "-//W3C//DTD SVG 1.1//EN" "http://www.w3.org/Graphics/SVG/1.1/DTD/svg11.dtd">
<svg version="1.1" id="Layer_1" xmlns="http://www.w3.org/2000/svg" xmlns:xlink="http://www.w3.org/1999/xlink" x="0px" y="0px"
	 viewBox="0 0 960 560" enable-background="new 0 0 960 560" xml:space="preserve">
<path fill="#5F7F8E" d="M594.8,294.6H384.2c-14.6,0-25.8-13.4-25.8-29.1c0-16.8,12.3-29.1,25.8-29.1h191.5c6.7,0,12.3-6.7,12.3-15.7
	s-5.6-15.7-12.3-15.7H385.4c-14.6,0-26.9-13.4-26.9-30.2s12.3-30.2,26.9-30.2h190.4c6.7,0,13.4-7.8,13.4-16.8s-5.6-16.8-13.4-16.8
	H385.4c-14.6,0-26.9-13.4-26.9-30.2s12.3-30.2,26.9-30.2h96.3v13.4h-96.3c-7.8,0-13.4,7.8-13.4,16.8s5.6,16.8,13.4,16.8h190.4
	c14.6,0,25.8,13.4,25.8,30.2s-12.3,30.2-25.8,30.2H385.4c-7.8,0-13.4,7.8-13.4,16.8c0,9,5.6,16.8,13.4,16.8h191.5
	c14.6,0,25.8,13.4,25.8,29.1s-11.2,29.1-25.8,29.1H384.2c-6.7,0-12.3,6.7-12.3,15.7s5.6,15.7,12.3,15.7h210.6V294.6z"/>
<path fill="#5F7F8E" d="M651.9,546.6h52.6v-9h-41.4v-30.2h34.7v-10.1h-34.7v-24.6h41.4v-10.1h-52.6V546.6z M573.5,546.6h11.2v-73.9
	h22.4v-10.1H550v10.1h23.5V546.6z M464.9,546.6h34.7v-9h-12.3v-65h12.3v-10.1h-34.7v10.1h11.2v65h-11.2V546.6z M360.7,546.6h11.2
	v-35.8h15.7l21.3,38.1l9-5.6l-20.2-33.6c10.1-3.4,16.8-13.4,16.8-23.5c0-16.8-11.2-22.4-24.6-22.4h-29.1V546.6z M371.9,500.6v-29.1
	h17.9c10.1,0,14.6,5.6,14.6,13.4c0,9-6.7,15.7-17.9,15.7L371.9,500.6L371.9,500.6z M255.4,461.4l12.3,87.4h3.4l17.9-51.5l16.8,51.5
	h3.4l13.4-87.4l-11.2-1.1l-6.7,59.4l0,0l-14.6-41.4h-3.4l-14.6,41.4l0,0l-5.6-59.4L255.4,461.4z"/>
</svg>
