<?xml version="1.0" encoding="utf-8"?>
<!-- Generator: Adobe Illustrator 18.0.0, SVG Export Plug-In . SVG Version: 6.00 Build 0)  -->
<!DOCTYPE svg PUBLIC "-//W3C//DTD SVG 1.1//EN" "http://www.w3.org/Graphics/SVG/1.1/DTD/svg11.dtd">
<svg version="1.1" id="Layer_1" xmlns="http://www.w3.org/2000/svg" xmlns:xlink="http://www.w3.org/1999/xlink" x="0px" y="0px"
	 viewBox="0 0 960 560" enable-background="new 0 0 960 560" xml:space="preserve">
<g>
	<path fill="#5F7F8E" d="M480,42.6c-25.8,0-48.2,12.3-61.6,34.7c-13.4,21.3-14.6,48.2-3.4,70.6l63.8,131L545,149
		c11.2-22.4,11.2-49.3-2.2-71.7S505.8,42.6,480,42.6 M477.8,310.2l-76.2-156.8c-13.4-26.9-11.2-58.2,4.5-84S449.8,28,480,28
		c30.2,0,58.2,15.7,73.9,41.4s16.8,58.2,3.4,85.1L477.8,310.2z"/>
	<path fill="#5F7F8E" d="M480,69.4c-25.8,0-47,21.3-47,47s21.3,47,47,47c25.8,0,47-21.3,47-47S505.8,69.4,480,69.4 M480,84
		c17.9,0,33.6,14.6,33.6,32.5S499,149,480,149c-17.9,0-33.6-14.6-33.6-32.5S462.1,84,480,84"/>
</g>
<path fill="#5F7F8E" d="M670.4,546.6h11.2v-73.9H704v-10.1h-57.1v10.1h23.5V546.6z M561.8,546.6h34.7v-9h-12.3v-65h12.3v-10.1h-34.7
	v10.1H573v65h-11.2V546.6z M455.4,523c2.2,14.6,12.3,24.6,28,24.6s26.9-9,26.9-24.6c0-9-4.5-15.7-11.2-20.2l-19-6.7
	c-6.7-3.4-11.2-5.6-11.2-13.4c0-7.8,6.7-11.2,13.4-11.2c9,0,13.4,5.6,15.7,14.6l10.1-3.4c-3.4-13.4-11.2-21.3-25.8-21.3
	c-13.4,0-24.6,7.8-24.6,22.4c0,15.7,11.2,19,23.5,24.6c7.8,3.4,16.8,5.6,16.8,16.8c0,9-6.7,14.6-15.7,14.6
	c-11.2,0-16.8-7.8-17.9-17.9L455.4,523z M369.1,546.6h34.7v-9h-12.3v-65h12.3v-10.1h-34.7v10.1h11.2v65h-11.2V546.6z M289.6,521.9
	l-22.4-61.6l-11.2,4.5l32.5,84h1.1l32.5-84l-10.1-4.5L289.6,521.9z"/>
</svg>
