<?xml version="1.0" encoding="utf-8"?>
<!-- Generator: Adobe Illustrator 18.0.0, SVG Export Plug-In . SVG Version: 6.00 Build 0)  -->
<!DOCTYPE svg PUBLIC "-//W3C//DTD SVG 1.1//EN" "http://www.w3.org/Graphics/SVG/1.1/DTD/svg11.dtd">
<svg version="1.1" id="Layer_1" xmlns="http://www.w3.org/2000/svg" xmlns:xlink="http://www.w3.org/1999/xlink" x="0px" y="0px"
	 viewBox="0 0 71 55" enable-background="new 0 0 71 55" xml:space="preserve">
<g>
	<path fill="#607F8E" d="M35.5,29.2l7.7-15c1.4-2.6,1.2-5.7-0.3-8.2c-1.5-2.5-4.2-4-7.2-4c-2.9,0-5.6,1.5-7.1,4
		c-1.6,2.5-1.7,5.5-0.4,8.2L35.5,29.2z M29.8,6.7c1.3-2.1,3.5-3.3,6-3.3c2.5,0,4.7,1.3,6,3.4c1.3,2.1,1.4,4.7,0.3,6.9l-6.4,12.5
		l-6.2-12.7C28.3,11.3,28.5,8.7,29.8,6.7z"/>
	<path fill="#607F8E" d="M35.7,15.2c2.5,0,4.6-2,4.6-4.6c0-2.5-2.1-4.6-4.6-4.6c-2.5,0-4.6,2-4.6,4.6C31.1,13.1,33.2,15.2,35.7,15.2
		z M35.7,7.4c1.8,0,3.2,1.4,3.2,3.2c0,1.8-1.4,3.2-3.2,3.2c-1.8,0-3.2-1.4-3.2-3.2C32.5,8.8,34,7.4,35.7,7.4z"/>
	<polygon fill="#607F8E" points="17.1,49.7 16.9,50.6 16.8,49.7 14.9,41.9 13.6,42.1 16.2,51.8 17.6,51.8 20.3,42.1 19,41.9 	"/>
	<polygon fill="#607F8E" points="24.4,43.1 25.8,43.1 25.8,50.7 24.4,50.7 24.4,51.8 28.5,51.8 28.5,50.7 27.1,50.7 27.1,43.1 
		28.5,43.1 28.5,42 24.4,42 	"/>
	<path fill="#607F8E" d="M36.8,46.5L35.9,46c-0.5-0.3-0.9-0.6-1.1-0.8c-0.2-0.2-0.3-0.5-0.3-0.9c0-0.4,0.1-0.7,0.4-0.9
		c0.3-0.2,0.7-0.3,1.1-0.3c0.4,0,0.8,0.1,1.1,0.1c0.3,0.1,0.6,0.2,1,0.4l0.5-1c-0.4-0.2-0.7-0.4-1.2-0.5c-0.4-0.1-0.9-0.2-1.3-0.2
		c-0.4,0-0.8,0.1-1.2,0.2c-0.4,0.1-0.7,0.3-0.9,0.5c-0.3,0.2-0.5,0.5-0.6,0.8c-0.1,0.3-0.2,0.7-0.2,1c0,0.5,0.1,1,0.4,1.3
		c0.3,0.4,0.6,0.7,1.1,0.9l1,0.6c0.4,0.2,0.6,0.4,0.9,0.6c0.2,0.2,0.4,0.3,0.5,0.5c0.1,0.2,0.2,0.3,0.3,0.5c0.1,0.2,0.1,0.4,0.1,0.6
		c0,0.5-0.2,0.8-0.5,1.1c-0.3,0.3-0.7,0.4-1.2,0.4c-0.5,0-0.9-0.1-1.3-0.2c-0.4-0.1-0.8-0.3-1.1-0.5l-0.5,1.1
		c0.9,0.5,1.8,0.8,2.8,0.8c0.5,0,0.9-0.1,1.3-0.2c0.4-0.1,0.7-0.3,1-0.6c0.3-0.2,0.5-0.5,0.6-0.9c0.1-0.3,0.2-0.7,0.2-1.1
		c0-0.6-0.2-1.1-0.5-1.6C37.9,47.3,37.4,46.9,36.8,46.5z"/>
	<polygon fill="#607F8E" points="43.2,43.1 44.6,43.1 44.6,50.7 43.2,50.7 43.2,51.8 47.3,51.8 47.3,50.7 45.9,50.7 45.9,43.1 
		47.3,43.1 47.3,42 43.2,42 	"/>
	<polygon fill="#607F8E" points="51.4,42 51.4,43.1 53.7,43.1 53.7,51.8 54.9,51.8 54.9,43.1 57.2,43.1 57.4,42 	"/>
</g>
</svg>
