<?xml version="1.0" encoding="utf-8"?>
<!-- Generator: Adobe Illustrator 18.0.0, SVG Export Plug-In . SVG Version: 6.00 Build 0)  -->
<!DOCTYPE svg PUBLIC "-//W3C//DTD SVG 1.1//EN" "http://www.w3.org/Graphics/SVG/1.1/DTD/svg11.dtd">
<svg version="1.1" id="Layer_1" xmlns="http://www.w3.org/2000/svg" xmlns:xlink="http://www.w3.org/1999/xlink" x="0px" y="0px"
	 viewBox="0 0 40 50" enable-background="new 0 0 40 50" xml:space="preserve">
<g>
	<path fill="#231F20" d="M20,3.8c-2.3,0-4.3,1.1-5.5,3.1c-1.2,1.9-1.3,4.3-0.3,6.3l5.7,11.7l5.9-11.6c1-2,1-4.4-0.2-6.4
		C24.4,4.9,22.3,3.8,20,3.8 M19.8,27.7l-6.8-14c-1.2-2.4-1-5.2,0.4-7.5c1.4-2.3,3.9-3.7,6.6-3.7c2.7,0,5.2,1.4,6.6,3.7
		c1.4,2.3,1.5,5.2,0.3,7.6L19.8,27.7z"/>
	<path fill="#231F20" d="M20,6.2c-2.3,0-4.2,1.9-4.2,4.2s1.9,4.2,4.2,4.2c2.3,0,4.2-1.9,4.2-4.2S22.3,6.2,20,6.2 M20,7.5
		c1.6,0,3,1.3,3,2.9s-1.3,2.9-3,2.9c-1.6,0-3-1.3-3-2.9S18.4,7.5,20,7.5"/>
</g>
<path fill="#231F20" d="M37,48.8h1v-6.6h2v-0.9h-5.1v0.9H37V48.8z M27.3,48.8h3.1V48h-1.1v-5.8h1.1v-0.9h-3.1v0.9h1V48h-1V48.8z
	 M17.8,46.7c0.2,1.3,1.1,2.2,2.5,2.2c1.4,0,2.4-0.8,2.4-2.2c0-0.8-0.4-1.4-1-1.8L20,44.3c-0.6-0.3-1-0.5-1-1.2c0-0.7,0.6-1,1.2-1
	c0.8,0,1.2,0.5,1.4,1.3l0.9-0.3c-0.3-1.2-1-1.9-2.3-1.9c-1.2,0-2.2,0.7-2.2,2c0,1.4,1,1.7,2.1,2.2c0.7,0.3,1.5,0.5,1.5,1.5
	c0,0.8-0.6,1.3-1.4,1.3c-1,0-1.5-0.7-1.6-1.6L17.8,46.7z M10.1,48.8h3.1V48h-1.1v-5.8h1.1v-0.9h-3.1v0.9h1V48h-1V48.8z M3,46.6
	l-2-5.5L0,41.5L2.9,49H3l2.9-7.5L5,41.1L3,46.6z"/>
</svg>
