<?xml version="1.0" encoding="utf-8"?>
<!-- Generator: Adobe Illustrator 18.0.0, SVG Export Plug-In . SVG Version: 6.00 Build 0)  -->
<!DOCTYPE svg PUBLIC "-//W3C//DTD SVG 1.1//EN" "http://www.w3.org/Graphics/SVG/1.1/DTD/svg11.dtd">
<svg version="1.1" id="Layer_1" xmlns="http://www.w3.org/2000/svg" xmlns:xlink="http://www.w3.org/1999/xlink" x="0px" y="0px"
	 viewBox="0 0 71 55" enable-background="new 0 0 71 55" xml:space="preserve">
<g>
	<path fill="#1B1B1B" d="M46.2,3.4H22.4v23.9h23.8V3.4z M23.8,25.9V4.7h20.8L34.1,25.9H23.8z M44.9,25.9h-5.8l5.8-11.6V25.9z
		 M44.9,11.2l-7.4,14.7h-1.9l9.3-18.6V11.2z"/>
	<g>
		<path fill="#1B1B1B" d="M6.6,42.5c-0.3-0.2-0.6-0.3-0.9-0.4S4.9,42,4.5,42H1.9v10h1.3v-4.2h1.2c1.1,0,1.9-0.3,2.3-0.8
			c0.5-0.6,0.7-1.3,0.7-2.3c0-0.5-0.1-0.9-0.2-1.3C7.1,43,6.9,42.8,6.6,42.5z M5.7,46.2c-0.3,0.3-0.8,0.4-1.4,0.4H3.2v-3.5h1.1
			c0.7,0,1.1,0.1,1.4,0.3s0.4,0.6,0.4,1.2C6.1,45.5,6,46,5.7,46.2z"/>
		<polygon fill="#1B1B1B" points="11.6,43.1 13,43.1 13,50.9 11.6,50.9 11.6,52 15.8,52 15.8,50.9 14.3,50.9 14.3,43.1 15.8,43.1 
			15.8,42 11.6,42 		"/>
		<path fill="#1B1B1B" d="M25.1,50.8c-0.3,0.2-0.6,0.3-1,0.3c-0.6,0-1.2-0.3-1.5-1c-0.4-0.7-0.5-1.8-0.5-3.3c0-0.7,0-1.3,0.1-1.8
			s0.2-0.9,0.4-1.2c0.2-0.3,0.4-0.5,0.6-0.7s0.5-0.2,0.8-0.2c0.4,0,0.7,0.1,1,0.2c0.3,0.2,0.5,0.4,0.8,0.6l0.7-0.8
			c-0.4-0.4-0.8-0.7-1.2-0.9c-0.4-0.2-0.9-0.3-1.3-0.3c-1.1,0-1.9,0.4-2.5,1.3c-0.6,0.9-0.8,2.1-0.8,3.8c0,1.7,0.3,3,0.9,3.9
			s1.4,1.4,2.5,1.4c0.4,0,0.8-0.1,1.2-0.3s0.8-0.5,1.2-0.9l-0.6-0.8C25.7,50.5,25.4,50.7,25.1,50.8z"/>
		<polygon fill="#1B1B1B" points="30.7,43.1 33,43.1 33,52 34.3,52 34.3,43.1 36.6,43.1 36.8,42 30.7,42 		"/>
		<path fill="#1B1B1B" d="M46.5,49.3c0,0.6-0.2,1-0.5,1.3s-0.8,0.4-1.5,0.4c-0.6,0-1.1-0.1-1.4-0.4s-0.4-0.7-0.4-1.4V42h-1.3v7.4
			c0,1,0.3,1.7,0.8,2.2c0.5,0.5,1.3,0.7,2.3,0.7c0.5,0,0.9-0.1,1.3-0.2c0.4-0.1,0.7-0.3,1-0.5c0.3-0.2,0.5-0.5,0.7-0.9
			c0.2-0.4,0.2-0.8,0.2-1.3V42h-1.2V49.3z"/>
		<path fill="#1B1B1B" d="M58.4,46.3c0.3-0.5,0.5-1.1,0.5-1.8c0-0.5-0.1-0.9-0.2-1.2c-0.2-0.3-0.4-0.6-0.6-0.8s-0.6-0.3-0.9-0.4
			C56.8,42,56.4,42,55.9,42h-2.6v10h1.3v-4.5h1l2.4,4.6l1.4-0.3L57,47.4C57.6,47.2,58,46.8,58.4,46.3z M54.6,46.5v-3.3h1.2
			c0.6,0,1.1,0.1,1.3,0.3c0.3,0.2,0.4,0.6,0.4,1.1c0,0.6-0.2,1.1-0.5,1.4c-0.3,0.3-0.8,0.5-1.3,0.5H54.6z"/>
		<polygon fill="#1B1B1B" points="65.4,50.8 65.4,47.4 68.4,47.4 68.4,46.2 65.4,46.2 65.4,43.2 68.9,43.2 69.1,42 64.1,42 64.1,52 
			69.1,52 69.1,50.8 		"/>
	</g>
</g>
</svg>
