<?xml version="1.0" encoding="utf-8"?>
<!-- Generator: Adobe Illustrator 18.0.0, SVG Export Plug-In . SVG Version: 6.00 Build 0)  -->
<!DOCTYPE svg PUBLIC "-//W3C//DTD SVG 1.1//EN" "http://www.w3.org/Graphics/SVG/1.1/DTD/svg11.dtd">
<svg version="1.1" id="Layer_1" xmlns="http://www.w3.org/2000/svg" xmlns:xlink="http://www.w3.org/1999/xlink" x="0px" y="0px"
	 viewBox="0 0 56.4 50" enable-background="new 0 0 56.4 50" xml:space="preserve">
<path fill="#231F20" d="M30.2,25.4l5.4-10.8v10.8H30.2z M16.1,5.9h19.2l-9.8,19.5h-9.5V5.9z M35.5,11.8l-6.8,13.6H27l8.6-17.2V11.8z
	 M14.8,26.7h22V4.6h-22V26.7z"/>
<path fill="#231F20" d="M51.7,48.8h4.7V48h-3.7v-2.7h3.1v-0.9h-3.1v-2.2h3.7v-0.9h-4.7V48.8z M43,48.8h1v-3.2h1.4l1.9,3.4l0.8-0.5
	l-1.8-3c0.9-0.3,1.5-1.2,1.5-2.1c0-1.5-1-2-2.2-2H43V48.8z M43.9,44.7v-2.6h1.6c0.9,0,1.3,0.5,1.3,1.2c0,0.8-0.6,1.4-1.6,1.4H43.9z
	 M34.2,41.3v5.5c0,1.1,0.7,2.1,2.3,2.1c1.7,0,2.4-1.1,2.4-2.1v-5.6h-1v5.1c0,1.1-0.3,1.6-1.5,1.6c-1,0-1.3-0.5-1.3-1.6v-5.1H34.2z
	 M27.4,48.8h1v-6.6h2v-0.9h-5.1v0.9h2.1V48.8z M21.1,46.8c-0.4,0.7-0.9,1.2-1.8,1.2c-1.5,0-1.8-1.8-1.8-3c0-1.2,0.3-3,1.8-3
	c0.7,0,1.2,0.5,1.5,1.1l0.9-0.4c-0.5-1-1.2-1.6-2.4-1.6c-1.2,0-2.8,0.9-2.8,3.9c0,1.9,0.7,3.9,2.9,3.9c1.2,0,1.9-0.6,2.5-1.6
	L21.1,46.8z M9.1,48.8h3.1V48h-1.1v-5.8h1.1v-0.9H9.1v0.9h1V48h-1V48.8z M1,44.7v-2.5h1.3c0.8,0,1.5,0.2,1.5,1.3
	c0,0.9-0.5,1.3-1.5,1.3H1z M1,45.6h1.6c1,0,2.2-0.6,2.2-2.2c0-1.1-0.7-2-2.4-2H0v7.5h1V45.6z"/>
</svg>
