<?xml version="1.0" encoding="utf-8"?>
<!-- Generator: Adobe Illustrator 18.0.0, SVG Export Plug-In . SVG Version: 6.00 Build 0)  -->
<!DOCTYPE svg PUBLIC "-//W3C//DTD SVG 1.1//EN" "http://www.w3.org/Graphics/SVG/1.1/DTD/svg11.dtd">
<svg version="1.1" id="Layer_1" xmlns="http://www.w3.org/2000/svg" xmlns:xlink="http://www.w3.org/1999/xlink" x="0px" y="0px"
	 viewBox="0 0 960 560" enable-background="new 0 0 960 560" xml:space="preserve">
<path fill="#5F7F8E" d="M502.4,284.5l60.5-121v121H502.4z M344.5,66.1h215L449.8,284.5H343.4V66.1H344.5z M561.8,132.2l-76.2,152.3
	h-19l96.3-192.6v40.3H561.8z M329.9,299h246.4V51.5H329.9L329.9,299L329.9,299z"/>
<path fill="#5F7F8E" d="M743.2,546.6h52.6v-9h-41.4v-30.2h34.7v-10.1h-34.7v-24.6h41.4v-10.1h-52.6V546.6z M645.8,546.6H657v-35.8
	h15.7l21.3,38.1l9-5.6l-20.2-33.6c10.1-3.4,16.8-13.4,16.8-23.5c0-16.8-11.2-22.4-24.6-22.4h-29.1V546.6z M655.8,500.6v-29.1h17.9
	c10.1,0,14.6,5.6,14.6,13.4c0,9-6.7,15.7-17.9,15.7L655.8,500.6L655.8,500.6z M547.2,462.6v61.6c0,12.3,7.8,23.5,25.8,23.5
	c19,0,26.9-12.3,26.9-23.5v-62.7h-11.2v57.1c0,12.3-3.4,17.9-16.8,17.9c-11.2,0-14.6-5.6-14.6-17.9v-57.1h-10.1V462.6z M471,546.6
	h11.2v-73.9h22.4v-10.1h-57.1v10.1H471V546.6z M400.5,524.2c-4.5,7.8-10.1,13.4-20.2,13.4c-16.8,0-20.2-20.2-20.2-33.6
	s3.4-33.6,20.2-33.6c7.8,0,13.4,5.6,16.8,12.3l10.1-4.5c-5.6-11.2-13.4-17.9-26.9-17.9S349,470.4,349,504c0,21.3,7.8,43.7,32.5,43.7
	c13.4,0,21.3-6.7,28-17.9L400.5,524.2z M266.1,546.6h34.7v-9h-12.3v-65h12.3v-10.1h-34.7v10.1h11.2v65h-11.2V546.6z M175.4,500.6
	v-28h14.6c9,0,16.8,2.2,16.8,14.6c0,10.1-5.6,14.6-16.8,14.6h-14.6V500.6z M175.4,510.7h17.9c11.2,0,24.6-6.7,24.6-24.6
	c0-12.3-7.8-22.4-26.9-22.4h-26.9v84h11.2V510.7z"/>
</svg>
