<?xml version="1.0" encoding="utf-8"?>
<!-- Generator: Adobe Illustrator 18.0.0, SVG Export Plug-In . SVG Version: 6.00 Build 0)  -->
<!DOCTYPE svg PUBLIC "-//W3C//DTD SVG 1.1//EN" "http://www.w3.org/Graphics/SVG/1.1/DTD/svg11.dtd">
<svg version="1.1" id="Layer_1" xmlns="http://www.w3.org/2000/svg" xmlns:xlink="http://www.w3.org/1999/xlink" x="0px" y="0px"
	 viewBox="0 0 960 560" enable-background="new 0 0 960 560" xml:space="preserve">
<path fill="#5F7F8E" d="M401,213.9c0-42.6,32.5-76.2,73.9-79.5c0,49.3,0,113.1,0,157.9C433.5,290.1,401,256.5,401,213.9 M504.1,42.6
	c7.8,0,14.6,7.8,14.6,16.8V103c0,10.1-6.7,19-14.6,19h-14.6c0-37,0-63.8,0-63.8C489.5,49.3,496.2,42.6,504.1,42.6 M573.5,213.9
	c0-23.5-9-45.9-24.6-62.7l-10.1,9c13.4,14.6,20.2,33.6,20.2,53.8c0,40.3-30.2,73.9-69.4,78.4c0-44.8,0-107.5,0-156.8h14.6
	c15.7,0,28-15.7,28-33.6V58.2c0-16.8-12.3-30.2-29.1-30.2s-29.1,13.4-29.1,30.2c0,0,0,25.8,0,61.6c-49.3,2.2-88.5,43.7-88.5,93
	c0,50.4,39.2,90.7,88.5,93c0,25.8,0,42.6,0,42.6c0,4.5-1.1,9-4.5,11.2c-3.4,3.4-6.7,4.5-11.2,4.5l0,0c-4.5,0-9-2.2-11.2-4.5
	c-3.4-3.4-4.5-6.7-4.5-11.2c0-4.5,1.1-9,4.5-11.2l-9-9c-5.6,5.6-9,13.4-9,21.3c0,7.8,3.4,15.7,9,21.3s13.4,9,21.3,9l0,0
	c7.8,0,15.7-3.4,21.3-9c5.6-5.6,9-13.4,9-21.3c0,0,0-17.9,0-42.6C536.6,301.3,573.5,262.1,573.5,213.9"/>
<path fill="#5F7F8E" d="M690,546.6h11.2v-48.2l-1.1-22.4l0,0l32.5,70.6H746v-84h-11.2v48.2l1.1,21.3l0,0l-32.5-70.6H690V546.6z
	 M598.2,546.6h52.6v-9h-41.4v-30.2h34.7v-10.1h-34.7v-24.6h41.4v-10.1h-52.6V546.6z M519.8,546.6H531v-73.9h22.4v-10.1h-57.1v10.1
	h23.5V546.6z M401,523c2.2,14.6,12.3,24.6,28,24.6s26.9-9,26.9-24.6c0-9-4.5-15.7-11.2-20.2l-17.9-7.8c-6.7-3.4-11.2-5.6-11.2-13.4
	c0-7.8,6.7-11.2,13.4-11.2c9,0,13.4,5.6,15.7,14.6l10.1-3.4c-3.4-13.4-11.2-21.3-25.8-21.3c-13.4,0-24.6,7.8-24.6,22.4
	c0,15.7,11.2,19,23.5,24.6c7.8,3.4,16.8,5.6,16.8,16.8c0,9-6.7,14.6-15.7,14.6c-11.2,0-16.8-7.8-17.9-17.9L401,523z M314.8,546.6
	h33.6v-9h-11.2v-65h11.2v-10.1h-33.6v10.1H326v65h-11.2V546.6z M214,546.6h54.9v-9h-43.7v-73.9H214V546.6z"/>
</svg>
