<?xml version="1.0" encoding="utf-8"?>
<!-- Generator: Adobe Illustrator 18.0.0, SVG Export Plug-In . SVG Version: 6.00 Build 0)  -->
<!DOCTYPE svg PUBLIC "-//W3C//DTD SVG 1.1//EN" "http://www.w3.org/Graphics/SVG/1.1/DTD/svg11.dtd">
<svg version="1.1" id="Layer_1" xmlns="http://www.w3.org/2000/svg" xmlns:xlink="http://www.w3.org/1999/xlink" x="0px" y="0px"
	 viewBox="0 0 47.5 50" enable-background="new 0 0 47.5 50" xml:space="preserve">
<path fill="#231F20" d="M16.7,19.1c0-3.8,2.9-6.8,6.6-7.1c0,4.4,0,10.1,0,14.1C19.6,25.9,16.7,22.9,16.7,19.1 M25.9,3.8
	c0.7,0,1.3,0.7,1.3,1.5v3.9c0,0.9-0.6,1.7-1.3,1.7h-1.3c0-3.3,0-5.7,0-5.7C24.6,4.4,25.2,3.8,25.9,3.8 M32.1,19.1
	c0-2.1-0.8-4.1-2.2-5.6L29,14.3c1.2,1.3,1.8,3,1.8,4.8c0,3.6-2.7,6.6-6.2,7c0-4,0-9.6,0-14h1.3c1.4,0,2.5-1.4,2.5-3V5.2
	c0-1.5-1.1-2.7-2.6-2.7s-2.6,1.2-2.6,2.7c0,0,0,2.3,0,5.5c-4.4,0.2-7.9,3.9-7.9,8.3c0,4.5,3.5,8.1,7.9,8.3c0,2.3,0,3.8,0,3.8
	c0,0.4-0.1,0.8-0.4,1c-0.3,0.3-0.6,0.4-1,0.4h0c-0.4,0-0.8-0.2-1-0.4c-0.3-0.3-0.4-0.6-0.4-1c0-0.4,0.1-0.8,0.4-1L20,29.3
	c-0.5,0.5-0.8,1.2-0.8,1.9c0,0.7,0.3,1.4,0.8,1.9c0.5,0.5,1.2,0.8,1.9,0.8h0c0.7,0,1.4-0.3,1.9-0.8c0.5-0.5,0.8-1.2,0.8-1.9
	c0,0,0-1.6,0-3.8C28.8,26.9,32.1,23.4,32.1,19.1"/>
<path fill="#231F20" d="M42.5,48.8h1v-4.3l-0.1-2l0,0l2.9,6.3h1.2v-7.5h-1v4.3l0.1,1.9l0,0l-2.9-6.3h-1.2V48.8z M34.3,48.8H39V48
	h-3.7v-2.7h3.1v-0.9h-3.1v-2.2H39v-0.9h-4.7V48.8z M27.3,48.8h1v-6.6h2v-0.9h-5.1v0.9h2.1V48.8z M16.7,46.7c0.2,1.3,1.1,2.2,2.5,2.2
	c1.4,0,2.4-0.8,2.4-2.2c0-0.8-0.4-1.4-1-1.8l-1.6-0.7c-0.6-0.3-1-0.5-1-1.2c0-0.7,0.6-1,1.2-1c0.8,0,1.2,0.5,1.4,1.3l0.9-0.3
	c-0.3-1.2-1-1.9-2.3-1.9c-1.2,0-2.2,0.7-2.2,2c0,1.4,1,1.7,2.1,2.2c0.7,0.3,1.5,0.5,1.5,1.5c0,0.8-0.6,1.3-1.4,1.3
	c-1,0-1.5-0.7-1.6-1.6L16.7,46.7z M9,48.8H12V48H11v-5.8H12v-0.9H9v0.9h1V48H9V48.8z M0,48.8h4.9V48H1v-6.6H0V48.8z"/>
</svg>
