<?xml version="1.0" encoding="utf-8"?>
<!-- Generator: Adobe Illustrator 18.0.0, SVG Export Plug-In . SVG Version: 6.00 Build 0)  -->
<!DOCTYPE svg PUBLIC "-//W3C//DTD SVG 1.1//EN" "http://www.w3.org/Graphics/SVG/1.1/DTD/svg11.dtd">
<svg version="1.1" id="Layer_1" xmlns="http://www.w3.org/2000/svg" xmlns:xlink="http://www.w3.org/1999/xlink" x="0px" y="0px"
	 viewBox="0 0 57 50" enable-background="new 0 0 57 50" xml:space="preserve">
<path fill="#231F20" d="M39.3,21.7c-0.5,0.5-1.2,0.8-1.9,0.8l0,0.6v-0.6c-1.4,0-2.6-1.2-2.6-2.6c0-1.4,1.2-2.6,2.6-2.6
	c1.4,0,2.6,1.2,2.6,2.6C40,20.6,39.8,21.2,39.3,21.7 M23.2,23c-0.4-1-1.2-1.7-2.2-2.1l2.3-9.8c0.3,0.1,0.7,0.1,1,0.1h0
	c1,0,2-0.4,2.8-1.2c0.1-0.1,0.1-0.2,0.2-0.2l8,6.7c-1.1,0.7-1.8,1.9-1.8,3.3c0,0.1,0,0.3,0,0.4L23.2,23z M19.6,27.1l0,0.6L19.6,27.1
	c-1.5,0-2.6-1.2-2.6-2.6c0-0.7,0.3-1.4,0.8-1.9c0.5-0.5,1.2-0.8,1.9-0.8c1.4,0,2.6,1.2,2.6,2.6C22.2,25.9,21,27.1,19.6,27.1
	 M22.5,5.5C23,5,23.7,4.7,24.4,4.7c1.4,0,2.6,1.2,2.6,2.6c0,0.7-0.3,1.4-0.8,1.9c-0.5,0.5-1.2,0.8-1.9,0.8l0,0.6V10
	c-1.4,0-2.6-1.2-2.6-2.6C21.7,6.6,22,6,22.5,5.5 M37.4,16c-0.3,0-0.5,0-0.8,0.1L28,8.7c0.2-0.4,0.3-0.9,0.3-1.4
	c0-2.1-1.8-3.9-3.9-3.9c-1,0-2,0.4-2.8,1.2c-0.7,0.7-1.1,1.7-1.1,2.8c0,1.3,0.7,2.5,1.7,3.2l-2.4,10.1c-0.1,0-0.1,0-0.2,0
	c-1,0-2,0.4-2.8,1.2c-0.7,0.7-1.1,1.7-1.1,2.8c0,2.1,1.8,3.9,3.9,3.9h0c2.1,0,3.9-1.8,3.9-3.9c0-0.1,0-0.2,0-0.2l10.4-2.7
	c0.6,1.3,2,2.3,3.5,2.3h0c1,0,2-0.4,2.8-1.2c0.7-0.7,1.1-1.7,1.1-2.8C41.3,17.7,39.6,16,37.4,16"/>
<path fill="#231F20" d="M54,48.8h1v-6.6h2v-0.9h-5.1v0.9H54V48.8z M47.7,46.8c-0.4,0.7-0.9,1.2-1.8,1.2c-1.5,0-1.8-1.8-1.8-3
	c0-1.2,0.3-3,1.8-3c0.7,0,1.2,0.5,1.5,1.1l0.9-0.4c-0.5-1-1.2-1.6-2.4-1.6c-1.2,0-2.8,0.9-2.8,3.9c0,1.9,0.7,3.9,2.9,3.9
	c1.2,0,1.9-0.6,2.5-1.6L47.7,46.8z M35.1,48.8h4.7V48h-3.7v-2.7h3.1v-0.9h-3.1v-2.2h3.7v-0.9h-4.7V48.8z M26.1,48.8h1v-4.3l-0.1-2
	l0,0l2.9,6.3h1.2v-7.5h-1v4.3l0.1,1.9l0,0l-2.9-6.3h-1.2V48.8z M17.4,48.8h1v-4.3l-0.1-2l0,0l2.9,6.3h1.2v-7.5h-1v4.3l0.1,1.9l0,0
	l-2.9-6.3h-1.2V48.8z M11.3,42.1c1.5,0,1.7,1.9,1.7,3c0,1.1-0.2,3-1.7,3s-1.7-1.9-1.7-3C9.7,44,9.9,42.1,11.3,42.1 M11.3,41.2
	c-1.2,0-2.7,0.9-2.7,3.9c0,3,1.5,3.9,2.7,3.9c2.6,0,2.7-3.3,2.7-3.9C14,42.1,12.5,41.2,11.3,41.2 M4.6,46.8C4.1,47.5,3.7,48,2.8,48
	c-1.5,0-1.8-1.8-1.8-3c0-1.2,0.3-3,1.8-3c0.7,0,1.2,0.5,1.5,1.1l0.9-0.4c-0.5-1-1.2-1.6-2.4-1.6c-1.2,0-2.8,0.9-2.8,3.9
	c0,1.9,0.7,3.9,2.9,3.9c1.2,0,1.9-0.6,2.5-1.6L4.6,46.8z"/>
</svg>
