<?xml version="1.0" encoding="utf-8"?>
<!-- Generator: Adobe Illustrator 18.0.0, SVG Export Plug-In . SVG Version: 6.00 Build 0)  -->
<!DOCTYPE svg PUBLIC "-//W3C//DTD SVG 1.1//EN" "http://www.w3.org/Graphics/SVG/1.1/DTD/svg11.dtd">
<svg version="1.1" id="Layer_1" xmlns="http://www.w3.org/2000/svg" xmlns:xlink="http://www.w3.org/1999/xlink" x="0px" y="0px"
	 viewBox="0 0 960 560" enable-background="new 0 0 960 560" xml:space="preserve">
<path fill="#5F7F8E" d="M601,243c-5.6,5.6-13.4,9-21.3,9v6.7V252c-15.7,0-29.1-13.4-29.1-29.1s13.4-29.1,29.1-29.1
	s29.1,13.4,29.1,29.1C608.8,230.7,606.6,237.4,601,243 M420.6,257.6c-4.5-11.2-13.4-19-24.6-23.5l25.8-109.8
	c3.4,1.1,7.8,1.1,11.2,1.1l0,0c11.2,0,22.4-4.5,31.4-13.4c1.1-1.1,1.1-2.2,2.2-2.2l89.6,75c-12.3,7.8-20.2,21.3-20.2,37
	c0,1.1,0,3.4,0,4.5L420.6,257.6z M380.3,303.5v6.7V303.5c-16.8,0-29.1-13.4-29.1-29.1c0-7.8,3.4-15.7,9-21.3c5.6-5.6,13.4-9,21.3-9
	c15.7,0,29.1,13.4,29.1,29.1C409.4,290.1,396,303.5,380.3,303.5 M412.8,61.6c5.6-5.6,13.4-9,21.3-9c15.7,0,29.1,13.4,29.1,29.1
	c0,7.8-3.4,15.7-9,21.3c-5.6,5.6-13.4,9-21.3,9v6.7V112c-15.7,0-29.1-13.4-29.1-29.1C403.8,73.9,407.2,67.2,412.8,61.6 M579.7,179.2
	c-3.4,0-5.6,0-9,1.1l-96.3-82.9c2.2-4.5,3.4-10.1,3.4-15.7c0-23.5-20.2-43.7-43.7-43.7c-11.2,0-22.4,4.5-31.4,13.4
	c-7.8,7.8-12.3,19-12.3,31.4c0,14.6,7.8,28,19,35.8l-26.9,113.1c-1.1,0-1.1,0-2.2,0c-11.2,0-22.4,4.5-31.4,13.4
	c-7.8,7.8-12.3,19-12.3,31.4c0,23.5,20.2,43.7,43.7,43.7l0,0c23.5,0,43.7-20.2,43.7-43.7c0-1.1,0-2.2,0-2.2l116.5-30.2
	c6.7,14.6,22.4,25.8,39.2,25.8l0,0c11.2,0,22.4-4.5,31.4-13.4c7.8-7.8,12.3-19,12.3-31.4C623.4,198.2,604.3,179.2,579.7,179.2"/>
<path fill="#5F7F8E" d="M765.6,546.6h11.2v-73.9h22.4v-10.1h-57.1v10.1h23.5V546.6z M695,524.2c-4.5,7.8-10.1,13.4-20.2,13.4
	c-16.8,0-20.2-20.2-20.2-33.6s3.4-33.6,20.2-33.6c7.8,0,13.4,5.6,16.8,12.3l10.1-4.5c-5.6-11.2-13.4-17.9-26.9-17.9
	s-31.4,10.1-31.4,43.7c0,21.3,7.8,43.7,32.5,43.7c13.4,0,21.3-6.7,28-17.9L695,524.2z M553.9,546.6h52.6v-9h-41.4v-30.2h34.7v-10.1
	h-34.7v-24.6h41.4v-10.1h-52.6V546.6z M453.1,546.6h11.2v-48.2l-1.1-22.4l0,0l32.5,70.6h13.4v-84h-11.2v48.2L499,532l0,0l-32.5-70.6
	h-13.4V546.6z M355.7,546.6h11.2v-48.2l-1.1-22.4l0,0l32.5,70.6h13.4v-84h-11.2v48.2l1.1,21.3l0,0l-32.5-70.6h-13.4V546.6z
	 M287.4,471.5c16.8,0,19,21.3,19,33.6s-2.2,33.6-19,33.6s-19-21.3-19-33.6C269.4,492.8,271.7,471.5,287.4,471.5 M287.4,461.4
	c-13.4,0-30.2,10.1-30.2,43.7s16.8,43.7,30.2,43.7c29.1,0,30.2-37,30.2-43.7C317.6,471.5,300.8,461.4,287.4,461.4 M212.3,524.2
	c-5.6,7.8-10.1,13.4-20.2,13.4c-16.8,0-20.2-20.2-20.2-33.6s3.4-33.6,20.2-33.6c7.8,0,13.4,5.6,16.8,12.3l10.1-4.5
	c-5.6-11.2-13.4-17.9-26.9-17.9s-31.4,10.1-31.4,43.7c0,21.3,7.8,43.7,32.5,43.7c13.4,0,21.3-6.7,28-17.9L212.3,524.2z"/>
</svg>
