<?xml version="1.0" encoding="utf-8"?>
<!-- Generator: Adobe Illustrator 18.0.0, SVG Export Plug-In . SVG Version: 6.00 Build 0)  -->
<!DOCTYPE svg PUBLIC "-//W3C//DTD SVG 1.1//EN" "http://www.w3.org/Graphics/SVG/1.1/DTD/svg11.dtd">
<svg version="1.1" id="Layer_1" xmlns="http://www.w3.org/2000/svg" xmlns:xlink="http://www.w3.org/1999/xlink" x="0px" y="0px"
	 viewBox="0 0 71 55" enable-background="new 0 0 71 55" xml:space="preserve">
<g>
	<path fill="#607F8E" d="M46.2,15.8c-0.3,0-0.6,0-0.9,0.1L35.1,7.6c0.2-0.5,0.3-1.1,0.3-1.6c0-2.4-2-4.4-4.6-4.4
		c-1.2,0-2.3,0.5-3.2,1.3c-0.9,0.8-1.3,1.9-1.3,3.1c0,1.5,0.8,2.8,2,3.6l-2.8,11.5c-0.1,0-0.2,0-0.3,0c-1.2,0-2.3,0.5-3.2,1.3
		c-0.9,0.8-1.3,1.9-1.3,3.1c0,2.4,2,4.4,4.5,4.4h0c2.5,0,4.5-2,4.5-4.4c0-0.1,0-0.2,0-0.3l12.4-3.1c0.7,1.5,2.3,2.6,4.1,2.6h0
		c1.2,0,2.3-0.5,3.2-1.3c0.9-0.8,1.3-1.9,1.3-3.1C50.8,17.8,48.7,15.8,46.2,15.8z M27.7,6c0-0.8,0.3-1.6,0.9-2.1
		C29.2,3.3,30,3,30.9,3C32.6,3,34,4.3,34,6c0,0.5-0.1,1-0.4,1.5c-0.6,1-1.6,1.6-2.7,1.6l0,0.7V9c-0.5,0-1-0.1-1.5-0.3
		C28.4,8.2,27.8,7.1,27.7,6z M25.3,28.5l0,0.7L25.3,28.5c-1.7,0-3.2-1.3-3.2-3c0-0.8,0.3-1.6,0.9-2.1c0.6-0.6,1.4-0.9,2.2-0.9
		c0.2,0,0.4,0,0.6,0.1c1.2,0.2,2.2,1.1,2.4,2.3c0.1,0.2,0.1,0.4,0.1,0.7C28.4,27.2,27,28.5,25.3,28.5z M41.7,20.3c0,0.2,0,0.3,0,0.5
		l-12.2,3.1l-0.1,0c-0.5-1.1-1.4-2-2.6-2.5l2.8-11.2c0.4,0.1,0.8,0.2,1.3,0.2h0c1.4,0,2.6-0.6,3.5-1.6l9.4,7.7
		C42.5,17.3,41.7,18.7,41.7,20.3z M48.5,22.4c-0.6,0.6-1.4,0.9-2.2,0.9l0,0.7v-0.7c-1.4,0-2.7-0.9-3-2.2c-0.1-0.3-0.1-0.5-0.1-0.8
		c0-1.3,0.9-2.5,2.2-2.9c0.3-0.1,0.6-0.1,0.9-0.1c1.7,0,3.1,1.3,3.1,3C49.4,21,49.1,21.8,48.5,22.4z"/>
	<path fill="#607F8E" d="M9.4,50.9c-0.3,0.2-0.6,0.3-1,0.3c-0.6,0-1.1-0.3-1.5-1c-0.4-0.7-0.5-1.7-0.5-3.2c0-0.7,0-1.3,0.1-1.8
		c0.1-0.5,0.2-0.9,0.3-1.2s0.3-0.5,0.6-0.7c0.2-0.1,0.5-0.2,0.8-0.2c0.4,0,0.7,0.1,1,0.2c0.3,0.2,0.5,0.3,0.8,0.6l0.7-0.8
		c-0.4-0.4-0.7-0.7-1.2-0.8c-0.4-0.2-0.9-0.3-1.3-0.3c-1.1,0-1.9,0.4-2.4,1.3C5.3,44.2,5,45.5,5,47.1c0,1.7,0.3,3,0.8,3.9
		s1.4,1.3,2.5,1.3c0.4,0,0.8-0.1,1.2-0.2c0.4-0.2,0.8-0.5,1.2-0.9l-0.6-0.8C9.9,50.6,9.7,50.8,9.4,50.9z"/>
	<path fill="#607F8E" d="M17.5,42.1c-1.1,0-2,0.4-2.5,1.3c-0.6,0.9-0.9,2.1-0.9,3.9c0,1.7,0.3,2.9,0.8,3.8s1.4,1.3,2.4,1.3
		c1.1,0,2-0.4,2.5-1.3s0.9-2.1,0.9-3.8c0-1.7-0.3-3-0.8-3.8C19.4,42.5,18.6,42.1,17.5,42.1z M19.2,49.1c-0.1,0.5-0.2,0.9-0.4,1.2
		c-0.2,0.3-0.4,0.5-0.6,0.7c-0.2,0.1-0.5,0.2-0.8,0.2c-0.6,0-1.1-0.3-1.3-0.8c-0.2-0.4-0.3-0.8-0.4-1.4s-0.2-1.2-0.2-1.9
		c0-1.4,0.2-2.5,0.5-3.1c0.3-0.6,0.8-0.9,1.4-0.9c0.3,0,0.6,0.1,0.8,0.2c0.2,0.1,0.4,0.3,0.5,0.6c0.2,0.4,0.3,0.8,0.4,1.4
		s0.2,1.2,0.2,1.9C19.3,47.9,19.3,48.6,19.2,49.1z"/>
	<polygon fill="#607F8E" points="29.3,49.2 29.3,49.9 29,49.2 25.8,42.3 24.4,42.3 24.4,52.1 25.6,52.1 25.6,44.8 25.6,44.1 
		25.8,44.8 29.2,52.1 30.4,52.1 30.4,42.3 29.3,42.3 	"/>
	<polygon fill="#607F8E" points="40.1,49.2 40.1,49.9 39.8,49.2 36.6,42.3 35.3,42.3 35.3,52.1 36.4,52.1 36.4,44.8 36.4,44.1 
		36.6,44.8 40,52.1 41.2,52.1 41.2,42.3 40.1,42.3 	"/>
	<polygon fill="#607F8E" points="46.9,47.5 49.9,47.5 49.9,46.4 46.9,46.4 46.9,43.4 50.3,43.4 50.5,42.3 45.6,42.3 45.6,52.1 
		50.5,52.1 50.5,50.9 46.9,50.9 	"/>
	<path fill="#607F8E" d="M58.6,50.9c-0.3,0.2-0.6,0.3-1,0.3c-0.6,0-1.1-0.3-1.5-1c-0.4-0.7-0.5-1.7-0.5-3.2c0-0.7,0-1.3,0.1-1.8
		c0.1-0.5,0.2-0.9,0.3-1.2c0.2-0.3,0.3-0.5,0.6-0.7c0.2-0.1,0.5-0.2,0.8-0.2c0.4,0,0.7,0.1,1,0.2c0.3,0.2,0.5,0.3,0.8,0.6l0.7-0.8
		c-0.4-0.4-0.7-0.7-1.2-0.8c-0.4-0.2-0.9-0.3-1.3-0.3c-1.1,0-1.9,0.4-2.4,1.3c-0.5,0.8-0.8,2.1-0.8,3.7c0,1.7,0.3,3,0.8,3.9
		s1.4,1.3,2.5,1.3c0.4,0,0.8-0.1,1.2-0.2c0.4-0.2,0.8-0.5,1.2-0.9l-0.6-0.8C59.1,50.6,58.9,50.8,58.6,50.9z"/>
	<polygon fill="#607F8E" points="62.8,42.3 62.8,43.4 65.1,43.4 65.1,52.1 66.4,52.1 66.4,43.4 68.6,43.4 68.9,42.3 	"/>
</g>
</svg>
