<?xml version="1.0" encoding="utf-8"?>
<!-- Generator: Adobe Illustrator 18.1.0, SVG Export Plug-In . SVG Version: 6.00 Build 0)  -->
<!DOCTYPE svg PUBLIC "-//W3C//DTD SVG 1.1//EN" "http://www.w3.org/Graphics/SVG/1.1/DTD/svg11.dtd">
<svg version="1.1" id="Layer_1" xmlns="http://www.w3.org/2000/svg" xmlns:xlink="http://www.w3.org/1999/xlink" x="0px" y="0px"
	 viewBox="0 0 612 792" enable-background="new 0 0 612 792" xml:space="preserve">
<path fill="#5F7F8E" d="M357.9,400.3l58.6-117.2v117.2H357.9z M204.9,188.7h208.3L306.9,400.3H203.9V188.7H204.9z M415.5,252.8
	l-73.8,147.6h-18.4l93.3-186.6v39.1H415.5z M190.8,414.4h238.7V174.6H190.8L190.8,414.4L190.8,414.4z"/>
<g enable-background="new    ">
	<path fill="#5F7F8E" d="M104.8,571.3l6.2,57h0.4l13.5-39.8h2.8l13.5,39.8h0.4l6.4-57l10.6,1.2l-11.8,83.9h-3.6l-17-50l-17,50h-3.6
		l-11.7-83.9L104.8,571.3z"/>
	<path fill="#5F7F8E" d="M205.3,632.3l-7.6,24.1l-10.3-3.7l25.5-79.4h13.4l25.5,79.4l-10.2,3.7l-7.5-24.1H205.3z M219.6,585.4
		L208.1,623h23L219.6,585.4z"/>
	<path fill="#5F7F8E" d="M308.1,582.6h-22.4v-9.3h54.8v9.3h-22v71.8h-10.4V582.6z"/>
	<path fill="#5F7F8E" d="M435.5,638.8c-6.6,10.2-14.3,17-27,17c-23.7,0-31.1-21.8-31.1-41.9c0-32.4,17.1-42.1,30.2-42.1
		c12.6,0,19.9,6.6,25.7,17.3l-9.5,4.8c-3.4-6.5-8.1-12.3-16-12.3c-16.2,0-19.5,19.7-19.5,32.1c0,12.6,2.9,32.2,19.5,32.2
		c9.5,0,14.3-5.8,19.1-13.1L435.5,638.8z"/>
	<path fill="#5F7F8E" d="M473.4,573.3h10.4v33.6h32.1v-33.6h10.4v81.1h-10.4v-38.2h-32.1v38.2h-10.4V573.3z"/>
</g>
</svg>
