<?xml version="1.0" encoding="utf-8"?>
<!-- Generator: Adobe Illustrator 18.0.0, SVG Export Plug-In . SVG Version: 6.00 Build 0)  -->
<!DOCTYPE svg PUBLIC "-//W3C//DTD SVG 1.1//EN" "http://www.w3.org/Graphics/SVG/1.1/DTD/svg11.dtd">
<svg version="1.1" id="Layer_1" xmlns="http://www.w3.org/2000/svg" xmlns:xlink="http://www.w3.org/1999/xlink" x="0px" y="0px"
	 viewBox="0 0 71 55" enable-background="new 0 0 71 55" xml:space="preserve">
<g>
</g>
<g>
	<path fill="#1B1B1B" d="M46.2,3.4H22.4v23.9h23.8V3.4z M23.8,25.9V4.7h20.8L34.1,25.9H23.8z M44.9,25.9h-5.8l5.8-11.6V25.9z
		 M44.9,11.2l-7.4,14.7h-1.9l9.3-18.6V11.2z"/>
	<polygon fill="#1B1B1B" points="16.7,49.5 16.6,50.3 16.5,49.5 15.2,42 14,42 12.5,49.5 12.4,50.4 12.3,49.5 11,41.9 9.7,42.1 
		11.6,52 13,52 14.4,44.8 14.5,43.8 14.7,44.8 15.8,52 17.2,52 19.3,42.1 18.1,41.9 	"/>
	<path fill="#1B1B1B" d="M25.5,42l-3.1,10h1.4l0.9-3h3l0.8,3h1.4l-3.1-10H25.5z M24.9,47.9l0.9-3.2l0.3-1.2l0.3,1.2l0.9,3.2H24.9z"
		/>
	<polygon fill="#1B1B1B" points="32.5,43.1 34.8,43.1 34.8,52 36.1,52 36.1,43.1 38.4,43.1 38.6,42 32.5,42 	"/>
	<path fill="#1B1B1B" d="M46.7,50.8c-0.3,0.2-0.6,0.3-1,0.3c-0.6,0-1.2-0.3-1.5-1c-0.4-0.7-0.5-1.8-0.5-3.3c0-0.7,0-1.3,0.1-1.8
		c0.1-0.5,0.2-0.9,0.4-1.2c0.2-0.3,0.4-0.5,0.6-0.7c0.2-0.1,0.5-0.2,0.8-0.2c0.4,0,0.7,0.1,1,0.2c0.3,0.2,0.5,0.4,0.8,0.6l0.7-0.8
		c-0.4-0.4-0.8-0.7-1.2-0.9c-0.4-0.2-0.9-0.3-1.3-0.3c-1.1,0-1.9,0.4-2.5,1.3c-0.6,0.9-0.8,2.1-0.8,3.8c0,1.7,0.3,3,0.9,3.9
		c0.6,0.9,1.4,1.4,2.5,1.4c0.4,0,0.8-0.1,1.2-0.3c0.4-0.2,0.8-0.5,1.2-0.9l-0.6-0.8C47.2,50.4,47,50.6,46.7,50.8z"/>
	<polygon fill="#1B1B1B" points="57.7,42 57.7,46.2 54,46.2 54,42 52.7,42 52.7,52 54,52 54,47.3 57.7,47.3 57.7,52 59,52 59,42 	
		"/>
</g>
</svg>
