<?xml version="1.0" encoding="utf-8"?>
<!-- Generator: Adobe Illustrator 18.0.0, SVG Export Plug-In . SVG Version: 6.00 Build 0)  -->
<!DOCTYPE svg PUBLIC "-//W3C//DTD SVG 1.1//EN" "http://www.w3.org/Graphics/SVG/1.1/DTD/svg11.dtd">
<svg version="1.1" id="Layer_1" xmlns="http://www.w3.org/2000/svg" xmlns:xlink="http://www.w3.org/1999/xlink" x="0px" y="0px"
	 viewBox="278.7 0 486 612" enable-background="new 278.7 0 486 612" xml:space="preserve">
<path fill="#1B1B1B" d="M572,310.9l66.1-132.2v132.2H572z M399.4,72.2h235L514.5,310.9H398.2V72.2H399.4z M636.9,144.4l-83.2,166.5
	h-20.8l105.3-210.5v44.1h-1.3V144.4z M383.5,326.8h269.3V56.3H383.5V326.8L383.5,326.8z"/>
<g enable-background="new    ">
	<path fill="#1B1B1B" d="M290.8,503.6l7,64.1h0.4l15.2-44.8h3.2l15.2,44.8h0.4l7.2-64.1l11.9,1.4L338,599.3h-4l-19.1-56.2
		l-19.1,56.2h-4L278.7,505L290.8,503.6z"/>
	<path fill="#1B1B1B" d="M403.8,572.2l-8.6,27.1l-11.6-4.2l28.7-89.3h15.1l28.7,89.3l-11.5,4.2l-8.4-27.1H403.8z M419.9,519.5
		l-13,42.2h25.9L419.9,519.5z"/>
	<path fill="#1B1B1B" d="M519.3,516.3h-25.2v-10.5h61.6v10.5H531V597h-11.7V516.3z"/>
	<path fill="#1B1B1B" d="M662.6,579.5c-7.4,11.5-16.1,19.1-30.3,19.1c-26.6,0-35-24.5-35-47.1c0-36.4,19.2-47.3,34-47.3
		c14.2,0,22.4,7.4,28.9,19.4l-10.7,5.4c-3.8-7.3-9.1-13.8-18-13.8c-18.2,0-21.9,22.1-21.9,36.1c0,14.2,3.3,36.2,21.9,36.2
		c10.7,0,16.1-6.5,21.5-14.7L662.6,579.5z"/>
	<path fill="#1B1B1B" d="M705.2,505.8h11.7v37.8h36.1v-37.8h11.7V597h-11.7v-42.9h-36.1V597h-11.7V505.8z"/>
</g>
<path display="none" fill="#969595" d="M835.1,597.3h57.5v-9.8h-45.3v-33h37.9v-11h-37.9v-26.9h45.3v-11h-57.5V597.3z M728.7,597.3
	h12.2v-39.2H758l23.3,41.6l9.8-6.1l-22-36.7c11-3.7,18.4-14.7,18.4-25.7c0-18.4-12.2-24.5-26.9-24.5h-31.8L728.7,597.3L728.7,597.3z
	 M739.7,547.1v-31.8h19.6c11,0,15.9,6.1,15.9,14.7c0,9.8-7.3,17.1-19.6,17.1H739.7L739.7,547.1z M620.9,505.5v67.3
	c0,13.5,8.6,25.7,28.2,25.7c20.8,0,29.4-13.5,29.4-25.7v-68.5h-12.2v62.4c0,13.5-3.7,19.6-18.4,19.6c-12.2,0-15.9-6.1-15.9-19.6
	v-62.4h-11L620.9,505.5L620.9,505.5z M537.7,597.3h12.2v-80.8h24.5v-11H512v11h25.7L537.7,597.3L537.7,597.3z M460.6,572.8
	c-4.9,8.6-11,14.7-22,14.7c-18.4,0-22-22-22-36.7s3.7-36.7,22-36.7c8.6,0,14.7,6.1,18.4,13.5l11-4.9c-6.1-12.2-14.7-19.6-29.4-19.6
	s-34.3,11-34.3,47.7c0,23.3,8.6,47.7,35.5,47.7c14.7,0,23.3-7.3,30.6-19.6L460.6,572.8z M313.7,597.3h37.9v-9.8h-13.5v-71h13.5v-11
	h-37.9v11h12.2v71h-12.2V597.3L313.7,597.3z M214.6,547.1v-30.6h15.9c9.8,0,18.4,2.4,18.4,15.9c0,11-6.1,15.9-18.4,15.9h-15.9V547.1
	z M214.6,558.1h19.6c12.2,0,26.9-7.3,26.9-26.9c0-13.5-8.6-24.5-29.4-24.5h-29.4v91.8h12.2v-40.4H214.6z"/>
</svg>
