<?xml version="1.0" encoding="utf-8"?>
<!-- Generator: Adobe Illustrator 18.0.0, SVG Export Plug-In . SVG Version: 6.00 Build 0)  -->
<!DOCTYPE svg PUBLIC "-//W3C//DTD SVG 1.1//EN" "http://www.w3.org/Graphics/SVG/1.1/DTD/svg11.dtd">
<svg version="1.1" id="Layer_1" xmlns:sketch="http://www.bohemiancoding.com/sketch/ns"
	 xmlns="http://www.w3.org/2000/svg" xmlns:xlink="http://www.w3.org/1999/xlink" x="0px" y="0px" viewBox="0 0 21 21"
	 enable-background="new 0 0 21 21" xml:space="preserve">
<g id="Page-1" sketch:type="MSPage">
	<g id="Desktop-HD-Copy-2" transform="translate(-1126.000000, -532.000000)" sketch:type="MSArtboardGroup">
		<path id="Imported-Layers" sketch:type="MSShapeGroup" fill="#FFFFFF" d="M1136.3,532.6c-5.4,0-9.8,4.4-9.8,9.8
			c0,5.4,4.4,9.8,9.8,9.8c5.4,0,9.8-4.4,9.8-9.8C1146.1,537,1141.7,532.6,1136.3,532.6L1136.3,532.6z M1138.9,542.4h-1.8v6.1h-2.4
			v-6.1h-1.2v-2.4h1.2v-1.1c0-1,0.5-2.6,2.6-2.6l1.9,0v2.1h-1.4c-0.2,0-0.5,0.1-0.5,0.6v1h1.9L1138.9,542.4L1138.9,542.4z"/>
	</g>
</g>
</svg>
