<?xml version="1.0" encoding="utf-8"?>
<!-- Generator: Adobe Illustrator 18.0.0, SVG Export Plug-In . SVG Version: 6.00 Build 0)  -->
<!DOCTYPE svg PUBLIC "-//W3C//DTD SVG 1.1//EN" "http://www.w3.org/Graphics/SVG/1.1/DTD/svg11.dtd">
<svg version="1.1" id="Layer_1" xmlns:sketch="http://www.bohemiancoding.com/sketch/ns"
	 xmlns="http://www.w3.org/2000/svg" xmlns:xlink="http://www.w3.org/1999/xlink" x="0px" y="0px" viewBox="46.9 0 21 21"
	 enable-background="new 46.9 0 21 21" xml:space="preserve">
<g id="Page-1_1_" sketch:type="MSPage">
	<g id="Desktop-HD-Copy-2_1_" transform="translate(-1176.000000, -532.000000)" sketch:type="MSArtboardGroup">
		<g id="Imported-Layers_2_" transform="translate(1176.500000, 532.590000)" sketch:type="MSLayerGroup">
			<path id="Fill-1" sketch:type="MSShapeGroup" fill="#FFFFFF" d="M55.7,11.5l3.2-1.7L55.7,8V11.5"/>
			<path id="Fill-2" sketch:type="MSShapeGroup" fill="#FFFFFF" d="M56.9,0.4c-5.2,0-9.5,4.3-9.5,9.5s4.3,9.5,9.5,9.5
				s9.5-4.3,9.5-9.5S62.1,0.4,56.9,0.4L56.9,0.4z M62.8,10.3c0,1-0.1,2-0.1,2s-0.1,0.9-0.5,1.2c-0.5,0.5-1,0.5-1.2,0.6
				c-1.7,0.1-4.2,0.1-4.2,0.1s-3,0-4-0.1c-0.3-0.1-0.9,0-1.3-0.6c-0.4-0.4-0.5-1.2-0.5-1.2s-0.1-1-0.1-2v-1c0-1,0.1-2,0.1-2
				s0.2-0.9,0.6-1.2c0.5-0.5,1-0.5,1.2-0.6c1.6-0.1,4.1-0.1,4.1-0.1l0,0c0,0,2.5,0,4.2,0.1c0.2,0,0.8,0,1.2,0.6
				c0.4,0.4,0.5,1.2,0.5,1.2s0.1,1,0.1,2L62.8,10.3L62.8,10.3z"/>
		</g>
	</g>
</g>
</svg>
