<?xml version="1.0" encoding="utf-8"?>
<!-- Generator: Adobe Illustrator 18.1.0, SVG Export Plug-In . SVG Version: 6.00 Build 0)  -->
<!DOCTYPE svg PUBLIC "-//W3C//DTD SVG 1.1//EN" "http://www.w3.org/Graphics/SVG/1.1/DTD/svg11.dtd" [
	<!ENTITY st0 "fill:#FFFFFF;">
	<!ENTITY st1 "fill:#1B1B1B;">
	<!ENTITY st2 "fill:#D14C18;">
	<!ENTITY st3 "fill:#7C9DB1;">
]>
<svg version="1.1" xmlns="http://www.w3.org/2000/svg" xmlns:xlink="http://www.w3.org/1999/xlink" x="0px" y="0px"
	 viewBox="0 0 17.4 28" style="enable-background:new 0 0 17.4 28;" xml:space="preserve">
<g id="visual_x5F_icon_x5F_white">
</g>
<g id="visual_x5F_icon_x5F_black">
</g>
<g id="sound_x5F_icon_x5F_white">
</g>
<g id="sound_x5F_icon_x5F_black">
</g>
<g id="connections_x5F_icon_x5F_white">
</g>
<g id="connections_x5F_icon_x5F_black">
</g>
<g id="location_x5F_icon_x5F_white">
	<g>
		<path style="&st0;" d="M16.1,4.2C14.5,1.6,11.7,0,8.7,0c-3,0-5.8,1.5-7.4,4.1c-1.6,2.5-1.8,5.7-0.4,8.4L8.5,28l7.9-15.4
			C17.8,9.9,17.7,6.7,16.1,4.2z M15.3,12L8.5,25.2L2,11.9c-1.1-2.3-1-5,0.4-7.2c1.4-2.2,3.7-3.5,6.3-3.5c2.6,0,5,1.3,6.3,3.6
			C16.4,7,16.5,9.7,15.3,12z"/>
		<path style="&st0;" d="M8.7,4.1C6,4.1,3.9,6.3,3.9,8.9s2.1,4.7,4.8,4.7c2.6,0,4.8-2.1,4.8-4.7S11.3,4.1,8.7,4.1z M8.7,12.4
			c-1.9,0-3.5-1.6-3.5-3.5c0-1.9,1.6-3.5,3.5-3.5c1.9,0,3.5,1.6,3.5,3.5C12.2,10.8,10.6,12.4,8.7,12.4z"/>
	</g>
</g>
<g id="location_x5F_icon_x5F_black">
</g>
<g id="memories_x5F_icon_x5F_white">
</g>
<g id="memories_x5F_icon_x5F_black">
</g>
<g id="messages_x5F_icon_x5F_white">
</g>
<g id="messages_x5F_icon_x5F_white_1_">
</g>
<g id="messages_open_x5F_icon_x5F_white">
</g>
<g id="messages_open_x5F_icon_x5F_black">
</g>
<g id="settings_x5F_icon_x5F_white">
</g>
<g id="settings_x5F_icon_x5F_black">
</g>
<g id="close_x5F_icon_x5F_white">
</g>
<g id="close_x5F_icon_x5F_black">
</g>
</svg>
