<?xml version="1.0" encoding="utf-8"?>
<!-- Generator: Adobe Illustrator 18.1.0, SVG Export Plug-In . SVG Version: 6.00 Build 0)  -->
<!DOCTYPE svg PUBLIC "-//W3C//DTD SVG 1.1//EN" "http://www.w3.org/Graphics/SVG/1.1/DTD/svg11.dtd" [
	<!ENTITY st0 "fill:#FFFFFF;">
	<!ENTITY st1 "fill:#1B1B1B;">
	<!ENTITY st2 "fill:#D14C18;">
	<!ENTITY st3 "fill:#7C9DB1;">
]>
<svg version="1.1" xmlns="http://www.w3.org/2000/svg" xmlns:xlink="http://www.w3.org/1999/xlink" x="0px" y="0px"
	 viewBox="0 0 25 25.1" style="enable-background:new 0 0 25 25.1;" xml:space="preserve">
<g id="visual_x5F_icon_x5F_white">
</g>
<g id="visual_x5F_icon_x5F_black">
</g>
<g id="sound_x5F_icon_x5F_white">
</g>
<g id="sound_x5F_icon_x5F_black">
</g>
<g id="connections_x5F_icon_x5F_white">
</g>
<g id="connections_x5F_icon_x5F_black">
</g>
<g id="location_x5F_icon_x5F_white">
</g>
<g id="location_x5F_icon_x5F_black">
</g>
<g id="memories_x5F_icon_x5F_white">
	<g id="expanded_x5F_white">
		<g>
			<path style="&st0;" d="M24.4,25.1H2.6c-1.5,0-2.6-1.3-2.6-3s1.2-3,2.6-3h19.8c0.7,0,1.3-0.7,1.3-1.7s-0.6-1.7-1.3-1.7H2.7
				c-1.5,0-2.7-1.4-2.7-3.1s1.2-3.1,2.7-3.1h19.7c0.8,0,1.4-0.8,1.4-1.8s-0.6-1.8-1.4-1.8H2.7C1.2,6.1,0,4.7,0,3.1S1.2,0,2.7,0h9.9
				v1.2H2.7c-0.8,0-1.4,0.8-1.4,1.8s0.6,1.8,1.4,1.8h19.7c1.5,0,2.6,1.4,2.6,3s-1.2,3-2.6,3H2.7c-0.8,0-1.4,0.8-1.4,1.8
				s0.6,1.8,1.4,1.8h19.7c1.4,0,2.6,1.3,2.6,2.9c0,1.6-1.1,2.9-2.6,2.9H2.6c-0.8,0-1.4,0.8-1.4,1.7s0.6,1.7,1.4,1.7h21.7V25.1z"/>
		</g>
	</g>
</g>
<g id="memories_x5F_icon_x5F_black">
</g>
<g id="messages_x5F_icon_x5F_white">
</g>
<g id="messages_x5F_icon_x5F_white_1_">
</g>
<g id="messages_open_x5F_icon_x5F_white">
</g>
<g id="messages_open_x5F_icon_x5F_black">
</g>
<g id="settings_x5F_icon_x5F_white">
</g>
<g id="settings_x5F_icon_x5F_black">
</g>
<g id="close_x5F_icon_x5F_white">
</g>
<g id="close_x5F_icon_x5F_black">
</g>
</svg>
