<?xml version="1.0" encoding="utf-8"?>
<!-- Generator: Adobe Illustrator 18.1.0, SVG Export Plug-In . SVG Version: 6.00 Build 0)  -->
<!DOCTYPE svg PUBLIC "-//W3C//DTD SVG 1.1//EN" "http://www.w3.org/Graphics/SVG/1.1/DTD/svg11.dtd" [
	<!ENTITY st0 "fill:#FFFFFF;">
	<!ENTITY st1 "fill:#1B1B1B;">
	<!ENTITY st2 "fill:#D14C18;">
	<!ENTITY st3 "fill:#7C9DB1;">
]>
<svg version="1.1" xmlns="http://www.w3.org/2000/svg" xmlns:xlink="http://www.w3.org/1999/xlink" x="0px" y="0px"
	 viewBox="0 0 24.7 24.7" style="enable-background:new 0 0 24.7 24.7;" xml:space="preserve">
<g id="visual_x5F_icon_x5F_white">
</g>
<g id="visual_x5F_icon_x5F_black">
</g>
<g id="sound_x5F_icon_x5F_white">
</g>
<g id="sound_x5F_icon_x5F_black">
</g>
<g id="connections_x5F_icon_x5F_white">
</g>
<g id="connections_x5F_icon_x5F_black">
</g>
<g id="location_x5F_icon_x5F_white">
</g>
<g id="location_x5F_icon_x5F_black">
</g>
<g id="memories_x5F_icon_x5F_white">
</g>
<g id="memories_x5F_icon_x5F_black">
</g>
<g id="messages_x5F_icon_x5F_white">
</g>
<g id="messages_x5F_icon_x5F_white_1_">
</g>
<g id="messages_open_x5F_icon_x5F_white">
</g>
<g id="messages_open_x5F_icon_x5F_black">
</g>
<g id="settings_x5F_icon_x5F_white">
</g>
<g id="settings_x5F_icon_x5F_black">
	<g>
		<path style="&st1;" d="M21.9,15.5l0.2-0.4h2.7V9.7h-2.7l-0.2-0.4c-0.2-0.5-0.4-0.9-0.6-1.3L21,7.5l2-2l-3.8-3.8l-2.2,2.2L15,3.1V0
			H9.7v3.1L7.7,3.9L5.5,1.7L1.7,5.5l2,2L3.5,8C3.2,8.4,3,8.8,2.8,9.3L2.7,9.7H0V15h2.7l0.2,0.4c0.2,0.5,0.4,0.9,0.6,1.3l0.3,0.5
			l-2,2L5.5,23l2.2-2.2l2.1,0.8v3.1H15v-3.1l2.1-0.8l2.2,2.2l3.8-3.8l-2-2l0.3-0.5C21.5,16.4,21.7,15.9,21.9,15.5z M20.9,14.6
			L20.7,15c-0.2,0.4-0.3,0.8-0.5,1.1l-0.3,0.5l-0.5,0.8l0.7,0.7l1.1,1.1l-2,2L18,19.9l-0.6-0.6l-0.8,0.3l-2.1,0.8l-0.8,0.3v0.8v1.8
			H11v-1.8v-0.8l-0.8-0.3l-2.1-0.8l-0.8-0.3l-0.6,0.6l-1.3,1.3l-2-2l1.1-1.1l0.7-0.7l-0.5-0.8l-0.3-0.5C4.3,15.8,4.1,15.4,4,15
			l-0.2-0.4l-0.3-0.8H2.7H1.2V11h1.4h0.9l0.3-0.8L4,9.7C4.2,9.3,4.3,9,4.6,8.6l0.3-0.5l0.5-0.8L4.6,6.6L3.5,5.5l2-2l1.3,1.3l0.6,0.6
			l0.8-0.3l2.1-0.8L11,3.9V3.1V1.2h2.8v1.8v0.8l0.8,0.3l2.1,0.8l0.8,0.3L18,4.8l1.3-1.3l2,2l-1.1,1.1l-0.7,0.7l0.5,0.8l0.3,0.5
			c0.2,0.4,0.4,0.7,0.5,1.1l0.2,0.4l0.3,0.8h0.9h1.4v2.8h-1.4h-0.9L20.9,14.6z"/>
		<path style="&st1;" d="M12.4,7.7c-2.6,0-4.7,2.1-4.7,4.6c0,2.6,2.1,4.6,4.7,4.6c2.6,0,4.7-2.1,4.7-4.6C17.1,9.8,15,7.7,12.4,7.7z
			 M12.4,15.8c-1.9,0-3.4-1.5-3.4-3.4c0-1.9,1.5-3.4,3.4-3.4s3.4,1.5,3.4,3.4C15.8,14.3,14.3,15.8,12.4,15.8z"/>
	</g>
</g>
<g id="close_x5F_icon_x5F_white">
</g>
<g id="close_x5F_icon_x5F_black">
</g>
</svg>
