<?xml version="1.0" encoding="utf-8"?>
<!-- Generator: Adobe Illustrator 18.1.0, SVG Export Plug-In . SVG Version: 6.00 Build 0)  -->
<!DOCTYPE svg PUBLIC "-//W3C//DTD SVG 1.1//EN" "http://www.w3.org/Graphics/SVG/1.1/DTD/svg11.dtd" [
	<!ENTITY st0 "fill:#FFFFFF;">
	<!ENTITY st1 "fill:#1B1B1B;">
	<!ENTITY st2 "fill:#D14C18;">
	<!ENTITY st3 "fill:#7C9DB1;">
]>
<svg version="1.1" xmlns="http://www.w3.org/2000/svg" xmlns:xlink="http://www.w3.org/1999/xlink" x="0px" y="0px"
	 viewBox="0 0 18.3 34.7" style="enable-background:new 0 0 18.3 34.7;" xml:space="preserve">
<g id="visual_x5F_icon_x5F_white">
</g>
<g id="visual_x5F_icon_x5F_black">
</g>
<g id="sound_x5F_icon_x5F_white">
	<path style="&st0;" d="M18.3,18.3c0-2.3-0.8-4.5-2.4-6.2L15,13c1.3,1.5,2,3.3,2,5.3c0,4.1-3.1,7.4-7,7.9c0-4.4,0-10.7,0-15.6h1.5
		c1.5,0,2.7-1.5,2.7-3.3V2.9C14.2,1.3,13,0,11.5,0S8.7,1.3,8.7,2.9c0,0,0,2.6,0,6.2C3.9,9.4,0,13.4,0,18.3c0,4.9,3.9,8.9,8.8,9.1
		c0,2.6,0,4.3,0,4.3c0,0.9-0.8,1.7-1.7,1.7c0,0,0,0,0,0c-0.9,0-1.7-0.8-1.7-1.7c0-0.5,0.2-0.9,0.5-1.2L5,29.7
		c-0.6,0.6-0.9,1.3-0.9,2.1c0,1.6,1.3,2.9,2.9,2.9c0,0,0,0,0,0c1.6,0,2.9-1.3,2.9-3c0,0,0-1.7,0-4.3C14.6,27,18.3,23,18.3,18.3z
		 M11.5,1.2c0.8,0,1.5,0.8,1.5,1.7v4.3c0,1.1-0.7,2-1.5,2H10c0-3.7,0-6.3,0-6.3C10,2,10.6,1.2,11.5,1.2z M1.2,18.3
		c0-4.2,3.3-7.7,7.5-7.9c0,4.9,0,11.3,0,15.8C4.6,26,1.2,22.5,1.2,18.3z"/>
</g>
<g id="sound_x5F_icon_x5F_black">
</g>
<g id="connections_x5F_icon_x5F_white">
</g>
<g id="connections_x5F_icon_x5F_black">
</g>
<g id="location_x5F_icon_x5F_white">
</g>
<g id="location_x5F_icon_x5F_black">
</g>
<g id="memories_x5F_icon_x5F_white">
</g>
<g id="memories_x5F_icon_x5F_black">
</g>
<g id="messages_x5F_icon_x5F_white">
</g>
<g id="messages_x5F_icon_x5F_white_1_">
</g>
<g id="messages_open_x5F_icon_x5F_white">
</g>
<g id="messages_open_x5F_icon_x5F_black">
</g>
<g id="settings_x5F_icon_x5F_white">
</g>
<g id="settings_x5F_icon_x5F_black">
</g>
<g id="close_x5F_icon_x5F_white">
</g>
<g id="close_x5F_icon_x5F_black">
</g>
</svg>
