<?xml version="1.0" encoding="utf-8"?>
<!-- Generator: Adobe Illustrator 18.0.0, SVG Export Plug-In . SVG Version: 6.00 Build 0)  -->
<!DOCTYPE svg PUBLIC "-//W3C//DTD SVG 1.1//EN" "http://www.w3.org/Graphics/SVG/1.1/DTD/svg11.dtd">
<svg version="1.1" id="Layer_1" xmlns:sketch="http://www.bohemiancoding.com/sketch/ns"
	 xmlns="http://www.w3.org/2000/svg" xmlns:xlink="http://www.w3.org/1999/xlink" x="0px" y="0px" viewBox="23 0 21 21"
	 enable-background="new 23 0 21 21" xml:space="preserve">
<path id="Imported-Layers_1_" sketch:type="MSShapeGroup" fill="#FFFFFF" d="M33.5,0.7c-5.4,0-9.8,4.4-9.8,9.8s4.4,9.8,9.8,9.8
	s9.8-4.4,9.8-9.8S38.9,0.7,33.5,0.7L33.5,0.7z M29.9,13.3c-1.6,0-2.9-1.3-2.9-2.8c0-1.6,1.3-2.8,2.9-2.8c1.6,0,2.9,1.3,2.9,2.8
	C32.7,12.1,31.4,13.3,29.9,13.3L29.9,13.3z M37.1,13.3c-1.6,0-2.9-1.3-2.9-2.8c0-1.6,1.3-2.8,2.9-2.8c1.6,0,2.9,1.3,2.9,2.8
	S38.7,13.3,37.1,13.3L37.1,13.3z"/>
</svg>
