<?xml version="1.0" encoding="utf-8"?>
<!-- Generator: Adobe Illustrator 18.1.0, SVG Export Plug-In . SVG Version: 6.00 Build 0)  -->
<!DOCTYPE svg PUBLIC "-//W3C//DTD SVG 1.1//EN" "http://www.w3.org/Graphics/SVG/1.1/DTD/svg11.dtd">
<svg version="1.1" id="Layer_1" xmlns="http://www.w3.org/2000/svg" xmlns:xlink="http://www.w3.org/1999/xlink" x="0px" y="0px"
	 viewBox="0 0 50 50" enable-background="new 0 0 50 50" xml:space="preserve">
<linearGradient id="flickr_1_" gradientUnits="userSpaceOnUse" x1="-574.5208" y1="450.0312" x2="-574.5208" y2="449.0526" gradientTransform="matrix(48 0 0 -48 27602 21601.5)">
	<stop  offset="0" style="stop-color:#E3E3E3"/>
	<stop  offset="1" style="stop-color:#CFCFCE"/>
</linearGradient>
<path id="flickr" fill="url(#flickr_1_)" d="M0,50h50V0H0V50z M34.3,17.7c4.1,0,7.4,3.3,7.4,7.3c0,4-3.3,7.3-7.4,7.3
	S26.9,29,26.9,25C26.9,21,30.2,17.7,34.3,17.7L34.3,17.7z M15.7,17.7c4.1,0,7.4,3.3,7.4,7.3c0,4-3.3,7.3-7.4,7.3S8.3,29,8.3,25
	C8.3,21,11.6,17.7,15.7,17.7L15.7,17.7z"/>
</svg>
