<?xml version="1.0" encoding="utf-8"?>
<!-- Generator: Adobe Illustrator 18.1.0, SVG Export Plug-In . SVG Version: 6.00 Build 0)  -->
<!DOCTYPE svg PUBLIC "-//W3C//DTD SVG 1.1//EN" "http://www.w3.org/Graphics/SVG/1.1/DTD/svg11.dtd">
<svg version="1.1" id="Layer_1" xmlns="http://www.w3.org/2000/svg" xmlns:xlink="http://www.w3.org/1999/xlink" x="0px" y="0px"
	 viewBox="0 0 50 50" enable-background="new 0 0 50 50" xml:space="preserve">
<g>
	<linearGradient id="SVGID_1_" gradientUnits="userSpaceOnUse" x1="25" y1="-1.122316e-09" x2="25" y2="46.9778">
		<stop  offset="0" style="stop-color:#E3E3E3"/>
		<stop  offset="1" style="stop-color:#CFCFCE"/>
	</linearGradient>
	<path fill="url(#SVGID_1_)" d="M0,0v50h50V0H0z M40.6,34.6c0,3.3-2.7,6-6,6H15.4c-3.3,0-6-2.7-6-6V21.8v-6.4c0-3.3,2.7-6,6-6h19.2
		c3.3,0,6,2.7,6,6V34.6z"/>
	<g>
		<linearGradient id="SVGID_2_" gradientUnits="userSpaceOnUse" x1="33.9352" y1="12.5487" x2="33.9352" y2="17.542">
			<stop  offset="0" style="stop-color:#E3E3E3"/>
			<stop  offset="1" style="stop-color:#CFCFCE"/>
		</linearGradient>
		<polygon fill="url(#SVGID_2_)" points="36.6,17.8 36.6,12.5 35.9,12.6 31.3,12.6 31.3,17.9 		"/>
		<linearGradient id="SVGID_3_" gradientUnits="userSpaceOnUse" x1="24.5748" y1="21.3685" x2="24.5748" y2="36.2017">
			<stop  offset="0" style="stop-color:#E3E3E3"/>
			<stop  offset="1" style="stop-color:#CFCFCE"/>
		</linearGradient>
		<path fill="url(#SVGID_3_)" d="M32.5,21.4c0.4,1,0.6,2.1,0.6,3.2c0,4.7-3.8,8.5-8.5,8.5c-4.7,0-8.5-3.8-8.5-8.5
			c0-1.1,0.2-2.2,0.6-3.2H12v12.8c0,1.7,1.3,3,3,3h19.2c1.7,0,3-1.3,3-3V21.4H32.5z"/>
		<linearGradient id="SVGID_4_" gradientUnits="userSpaceOnUse" x1="25.0005" y1="19.501" x2="25.0005" y2="29.8342">
			<stop  offset="0" style="stop-color:#E3E3E3"/>
			<stop  offset="1" style="stop-color:#CFCFCE"/>
		</linearGradient>
		<path fill="url(#SVGID_4_)" d="M25,30.5c3,0,5.5-2.5,5.5-5.5c0-1.2-0.4-2.3-1-3.2c-1-1.4-2.6-2.3-4.5-2.3c-1.8,0-3.5,0.9-4.5,2.3
			c-0.7,0.9-1,2-1,3.2C19.5,28,22,30.5,25,30.5z"/>
	</g>
</g>
</svg>
