<?xml version="1.0" encoding="utf-8"?>
<!-- Generator: Adobe Illustrator 18.1.0, SVG Export Plug-In . SVG Version: 6.00 Build 0)  -->
<!DOCTYPE svg PUBLIC "-//W3C//DTD SVG 1.1//EN" "http://www.w3.org/Graphics/SVG/1.1/DTD/svg11.dtd">
<svg version="1.1" id="Layer_1" xmlns="http://www.w3.org/2000/svg" xmlns:xlink="http://www.w3.org/1999/xlink" x="0px" y="0px"
	 viewBox="0 0 50 50" enable-background="new 0 0 50 50" xml:space="preserve">
<linearGradient id="vimeo_1_" gradientUnits="userSpaceOnUse" x1="-578.3125" y1="378.5729" x2="-578.3125" y2="377.5942" gradientTransform="matrix(48 0 0 -48 27784 18171.5)">
	<stop  offset="0" style="stop-color:#E3E3E3"/>
	<stop  offset="1" style="stop-color:#CFCFCE"/>
</linearGradient>
<path id="vimeo" fill="url(#vimeo_1_)" d="M0,50h50V0H0V50z M18.7,11.7C23,10.9,23,18.3,24,22.4c1,4,1.7,6.2,2.5,6.2
	c0.9,0,2.5-2.2,4.4-5.6c1.8-3.4-0.1-6.4-3.6-4.3c1.4-8.5,14.9-10.6,13.2-0.8C38.7,27.7,29,36,26,37.9c-2.9,1.9-5.6-0.8-6.6-2.8
	c-1.1-2.3-4.4-14.7-5.3-15.7c-0.9-1-3.5,1-3.5,1l-1.3-1.7C9.4,18.8,14.7,12.5,18.7,11.7L18.7,11.7z"/>
</svg>
