<?xml version="1.0" encoding="utf-8"?>
<!-- Generator: Adobe Illustrator 18.1.0, SVG Export Plug-In . SVG Version: 6.00 Build 0)  -->
<!DOCTYPE svg PUBLIC "-//W3C//DTD SVG 1.1//EN" "http://www.w3.org/Graphics/SVG/1.1/DTD/svg11.dtd">
<svg version="1.1" id="Layer_1" xmlns="http://www.w3.org/2000/svg" xmlns:xlink="http://www.w3.org/1999/xlink" x="0px" y="0px"
	 viewBox="0 0 50 50" enable-background="new 0 0 50 50" xml:space="preserve">
<g id="youtube" transform="translate(180.000000, 0.500000)">
	
		<linearGradient id="Fill-4_1_" gradientUnits="userSpaceOnUse" x1="-653.3698" y1="341.412" x2="-653.3698" y2="340.4333" gradientTransform="matrix(8 0 0 -9 5073 3092)">
		<stop  offset="0" style="stop-color:#E3E3E3"/>
		<stop  offset="1" style="stop-color:#CFCFCE"/>
	</linearGradient>
	<path id="Fill-4" fill="url(#Fill-4_1_)" d="M-158.1,28.7l8.3-4.7l-8.3-4.7L-158.1,28.7"/>
	
		<linearGradient id="Fill-5_1_" gradientUnits="userSpaceOnUse" x1="-688.4792" y1="378.0625" x2="-688.4792" y2="377.0838" gradientTransform="matrix(48 0 0 -48 32892 18146.5)">
		<stop  offset="0" style="stop-color:#E3E3E3"/>
		<stop  offset="1" style="stop-color:#CFCFCE"/>
	</linearGradient>
	<path id="Fill-5" fill="url(#Fill-5_1_)" d="M-180,49.5h50v-50h-50V49.5z M-139.4,25.7c0,2.6-0.3,5.3-0.3,5.3s-0.3,2.2-1.2,3.2
		c-1.2,1.3-2.5,1.3-3.1,1.4C-148.4,35.9-155,36-155,36c0,0-8.1-0.1-10.6-0.3c-0.7-0.1-2.3-0.1-3.4-1.4c-0.9-1-1.2-3.2-1.2-3.2
		s-0.3-2.6-0.3-5.3v-2.5c0-2.6,0.3-5.3,0.3-5.3s0.3-2.2,1.2-3.2c1.2-1.3,2.5-1.3,3.1-1.4C-161.6,13-155,13-155,13h0
		c0,0,6.6,0,10.9,0.3c0.6,0.1,1.9,0.1,3.1,1.4c0.9,1,1.2,3.2,1.2,3.2s0.3,2.6,0.3,5.3V25.7L-139.4,25.7z"/>
</g>
</svg>
